<svg xmlns="http://www.w3.org/2000/svg" viewBox="0 0 512 512" fill="none">
  <!-- Golden yellow background with rounded corners -->
  <rect width="512" height="512" rx="115" fill="#F8B600"/>
  
  <!-- Decorative dots -->
  <circle cx="133" cy="105" r="18" fill="#FAA32C"/>
  <circle cx="231" cy="95" r="12" fill="#007280"/>
  <circle cx="85" cy="215" r="10" fill="#705040"/>
  <circle cx="430" cy="440" r="11" fill="#705040" opacity="0.6"/>
  
  <!-- Wave/swirl design (teal and orange) -->
  <path d="M 180 180 Q 220 120 280 140 Q 340 160 350 220 Q 360 280 320 320 Q 280 360 220 340 Q 160 320 150 260 Q 140 200 180 180 Z" 
        fill="#007280" stroke="#191919" stroke-width="8" stroke-linejoin="round"/>
  <path d="M 200 200 Q 230 160 270 170 Q 310 180 315 220 Q 320 260 285 285 Q 250 310 210 295 Q 170 280 165 240 Q 160 200 200 200 Z" 
        fill="#FAA32C" opacity="0.8"/>
  <path d="M 220 220 Q 240 200 260 205 Q 280 210 282 235 Q 284 260 265 270 Q 246 280 225 272 Q 204 264 202 245 Q 200 226 220 220 Z" 
        fill="#191919"/>
  
  <!-- Inner swirl accent -->
  <path d="M 200 240 Q 210 220 230 230 Q 250 240 245 260 Q 240 280 220 275 Q 200 270 200 250 Z" 
        fill="#FAA32C" opacity="0.5"/>
  
  <!-- GM Letters (red/passion color) -->
  <!-- G -->
  <path d="M 280 280 L 280 410 Q 280 430 300 430 L 360 430 Q 380 430 380 410 L 380 360 L 340 360 L 340 390 L 320 390 L 320 320 L 380 320 L 380 300 Q 380 280 360 280 L 300 280 Q 280 280 280 280 Z" 
        fill="#E63946" stroke="#191919" stroke-width="6" stroke-linejoin="round"/>
  
  <!-- M -->
  <path d="M 400 280 L 400 430 L 440 430 L 440 340 L 465 400 L 495 400 L 520 340 L 520 430 L 560 430 L 560 280 L 500 280 L 480 360 L 460 280 L 400 280 Z" 
        fill="#E63946" stroke="#191919" stroke-width="6" stroke-linejoin="round"/>
  
  <!-- Music note (black) -->
  <ellipse cx="420" cy="170" rx="18" ry="14" fill="#191919"/>
  <rect x="418" y="100" width="8" height="70" fill="#191919"/>
  <path d="M 426 100 Q 460 105 462 130 L 462 135 Q 460 115 426 108 Z" fill="#191919"/>
</svg>
